<svg xmlns="http://www.w3.org/2000/svg" viewBox="0 0 235.94 295.72"><defs><style>.cls-1,.cls-6{fill:#fff;}.cls-1,.cls-7{stroke:#010101;stroke-linecap:round;stroke-linejoin:round;}.cls-1,.cls-2,.cls-4,.cls-5,.cls-7{stroke-width:2px;}.cls-2,.cls-4,.cls-7{fill:none;}.cls-2,.cls-6{stroke:#1d1d1b;}.cls-2,.cls-4,.cls-5,.cls-6{stroke-miterlimit:10;}.cls-3{fill:#101013;}.cls-4,.cls-5{stroke:#040505;}.cls-5{fill:#040505;}</style></defs><title>Face 404</title><g id="Capa_2" data-name="Capa 2"><g id="Capa_4" data-name="Capa 4"><path class="cls-1" d="M82.44,71.58a.06.06,0,0,1,0,.08l-5.63,1.68-1,.31a8.36,8.36,0,0,1-2.16.24c-6.46,0-16.41-4.7-23.41-9.36A12.47,12.47,0,0,0,30.83,75.62a36,36,0,0,0,8.43,21.22s0,.11,0,.1a77.72,77.72,0,0,1-21.13-5,12.3,12.3,0,0,0-4.6-.88,12.48,12.48,0,0,0-12,15.74C4.75,119,13.56,128.14,21.91,134.32a.05.05,0,0,1,0,.08c-10.67,13.79-12.47,33.52-11.53,39.4a12.23,12.23,0,0,0,12,10.47h0a12.13,12.13,0,0,0,11-7.07v0a73.58,73.58,0,0,1,10.15-6.12.06.06,0,0,1,.08.08,12.55,12.55,0,0,0-1.63,4.8c-.2,1.64-1.22,10.27-1.55,19.16-.54,15,.78,25.14,9.08,29.61a22.76,22.76,0,0,0,4.37,1.81s0,0,0,0a76.3,76.3,0,0,0,7.41,26.69c.2.41,2.12,4,3.52,6.64,1.56,2.9,2.74,5.11,3.86,6.81l0,0,5,8a17.21,17.21,0,0,0,3,3.66c11.59,10.5,29.18,16.28,49.53,16.28h1.53c28.58-.39,48.09-25.32,56.82-39.35a0,0,0,0,1,.06,0l6.94,1.64a12.38,12.38,0,0,0,2.91.34,12.54,12.54,0,0,0,12.27-10.1l.28-1.45s0-.06.07-.05a17.61,17.61,0,0,0,4.23.52h0A15.32,15.32,0,0,0,225.62,237c2.57-5.51,2.72-11.72,1.49-17.92a.07.07,0,0,1,0-.07,12.48,12.48,0,0,0,7.63-9.9c1.59-12.06-8.72-27.46-16.27-36.91l-.17-.84c15.2-27.28,1.54-51.18-6-64.31-.49-.85-1-1.69-1.42-2.5-.94-1.67-1.92-3.41,1.16-5.85a12.43,12.43,0,0,0,4-13.85,12.94,12.94,0,0,0-11.6-8.44c-.64,0-1.27-.06-1.91-.06a33.48,33.48,0,0,0-6.78.71.06.06,0,0,1-.07,0c-.22-.82-.45-1.65-.7-2.49a12.83,12.83,0,0,0-10-9.21,12.54,12.54,0,0,0-14.18,9,7.07,7.07,0,0,1-.49,1.31l-2.88-15.28c.23-.08.47-.13.7-.2,2.64-.73,9.66-2.66,12.89-11a19,19,0,0,0-26.75-23.67c0-.09,0-.16,0-.24a24.28,24.28,0,0,0-47.79-6.07h0l-.4,4.05s0,0,0,0l1.15,3.91a.06.06,0,0,1-.1.06,19.16,19.16,0,0,0-13-5.2,18.92,18.92,0,0,0-6.85,1.28,19.51,19.51,0,0,0-12,20.6l.45,3.78h0L79.33,62.9h0Z"/><path class="cls-2" d="M66.35,214.14S62.17,185,65.28,177.5l0-30.67L92.81,116V134.4L113,113l4.52,25.29L137.38,113S143,136.12,154.1,137.4c0,0,1.71-22.28,5.14-21.86s20.14,18,21.43,22.29,3,16.29,3,16.29-5.14,37.28-3.86,43.71-20.14,20.57-20.14,20.57-21-21.43-35.77-20.57S89.81,205.54,83,218.4Z"/><path class="cls-3" d="M65.76,156.59c.12,1.18,21.45-7.62,49.82-6.89l2.4-6.43c-3,0-39.83-1.93-52.22,3Z"/><path class="cls-3" d="M132.28,142.62l5.05,7.16s29.61-9.3,46.34,4.34l-2.18-12.88C181.93,142.94,145.28,130.2,132.28,142.62Z"/><line class="cls-2" x1="116.28" y1="188.66" x2="111.7" y2="192.79"/><path class="cls-2" d="M78.89,260.4c-.27-.07-6.68-12.23-6.8-12.47-1.42-2.86-8.19-17.46-5.88-32.93a.46.46,0,0,0-.63-.51,12.35,12.35,0,0,1-10.38-.35c-5.37-2.89-1.58-34.47-1.3-36.73a.53.53,0,0,1,.14-.29c.45-.43,2.41-1.48,10.26.17a.49.49,0,0,0,.54-.69c-1.72-3.53-8.33-16.39-15.44-21.47a.41.41,0,0,0-.4,0c-2.43,1.08-25.15,11.35-26.37,16.62-1.26,5.47-1.49-31.15,20.06-38.2a.47.47,0,0,0,0-.88c-5.16-2.27-25.12-12-29.72-29a.48.48,0,0,1,.64-.57c5.61,2.23,36.69,13.56,51.14-2.37a.49.49,0,0,0-.21-.78c-3.68-1.27-20.79-8-21.77-25a.47.47,0,0,1,.73-.41c4,2.65,22.68,14.42,35.64,10.63h0c.87-.09,22-2.34,47.12-6,20.19-2.94,42,8.56,46.07,11a.42.42,0,0,0,.43,0,22.57,22.57,0,0,0,9.67-12.65.49.49,0,0,1,.95,0c1.06,3.57,3.21,11.72,2.4,16.49a.49.49,0,0,0,.79.47c2.65-2.1,9.51-6.75,17.73-6a.49.49,0,0,1,.27.86c-2.84,2.26-10.56,9.8-4.17,21.15,7.7,13.68,21.36,34.19,5.26,58.54a.54.54,0,0,0-.08.37l1.65,8a.42.42,0,0,0,.11.22c1.24,1.49,16.73,20.26,15.45,29.94a.49.49,0,0,1-.68.38l-13.88-5.63a.5.5,0,0,0-.62.72c2.71,4.6,11.3,20.42,6.93,29.14,0,0-2.48,7.45-15.18-5.72a.51.51,0,0,0-.86.25L195,244.92a.51.51,0,0,1-.61.39L179,241.66a.5.5,0,0,0-.56.26c-2,4-21.24,40.39-50.83,40.79-27.78.38-40.37-10.93-42.83-13.16a5.27,5.27,0,0,1-.91-1.09Z"/><path class="cls-2" d="M90.29,238.65a12.73,12.73,0,0,1-.78-7.17c1.25-7.35,6.91-25.72,32.44-25.72,24.09,0,31.59,16.34,33.82,24.37a7.94,7.94,0,0,1-2.56,8.25c-4.52,3.74-14.13,8.21-32.43,4C114.31,240.85,95.5,250.62,90.29,238.65Z"/><path class="cls-2" d="M193.2,198.26s10.35.49-1.62-17.65"/><path class="cls-2" d="M187.31,188.66a32.88,32.88,0,0,1,4.27-8,18.52,18.52,0,0,1,7.52-6.35"/><path class="cls-2" d="M187.31,213.47c8.57,1.07,15.86-4.07,15.86-4.07s7.07-19.66,4.18-31.9-13.82-21.88-21.32-.67"/><path class="cls-2" d="M183,213.47h4.34c-.21,4.29-8.68,28.1-8.68,28.1"/><path class="cls-4" d="M80.53,155.86c3-.11,1.57-.18,29.41,0"/><path class="cls-4" d="M83.69,184.75s8.58-.21,26.25-.68"/><ellipse class="cls-5" cx="97.82" cy="169.7" rx="8.51" ry="13.84"/><path class="cls-4" d="M140.8,185s15.39-.47,28.82-1.88"/><path class="cls-4" d="M137.33,155.12l29.61-1.38"/><ellipse class="cls-5" cx="154.19" cy="169.83" rx="8.91" ry="13.72"/><path d="M144.93,229.07c0,7.72-9.42.22-21,.22s-21,7.5-21-.22,9.42-14,21-14S144.93,221.35,144.93,229.07Z"/><path class="cls-6" d="M137.13,226.59c3-3.44,7.29.76,7.29.76-3,6.64-13.52,3.3-14.06.21s6-4,8.09-2"/><path class="cls-7" d="M130.14,56v0m0-9.18c0-13.81,12.28-10.74,12.28-21.48a12.28,12.28,0,0,0-24.17-3.07"/><path class="cls-7" d="M100.62,57.57v0M98.7,52.64c-2.86-7.4,4.35-8.31,2.12-14.06A7.05,7.05,0,0,0,87.24,42"/><path class="cls-7" d="M157,58.75h0m1.91-4.92c2.87-7.4,8.81-3.21,11-9a7.05,7.05,0,0,0-12.31-6.66"/></g></g></svg>