<svg xmlns="http://www.w3.org/2000/svg" xmlns:xlink="http://www.w3.org/1999/xlink" viewBox="0 0 245.66 300.82"><defs><style>.cls-1{fill:#fff;opacity:0.98;}.cls-2{fill:#040505;}.cls-2,.cls-3{stroke:#040505;}.cls-2,.cls-3,.cls-4,.cls-5,.cls-6{stroke-miterlimit:10;stroke-width:2px;}.cls-3,.cls-4,.cls-5{fill:none;}.cls-4,.cls-5,.cls-6{stroke:#020202;}.cls-4{opacity:0.97;}.cls-6{fill:#020202;}</style></defs><title>Tomi Sticker</title><g id="Capa_2" data-name="Capa 2"><g id="Capa_2-2" data-name="Capa 2"><path class="cls-1" d="M241.42,243.47c.56-39.27-20.12-62-21-62.95a9.1,9.1,0,0,0-1.55-1.35,42.86,42.86,0,0,0-8.68-4.63,9.86,9.86,0,0,0,1.92-2.78,10,10,0,0,0,.79-5.64,64.1,64.1,0,0,0,13.9-.05,10,10,0,0,0,6.62-16.15,18.56,18.56,0,0,0,9.22-4.59,10,10,0,0,0-1.54-15.6,39,39,0,0,1-12.39-13.06l-.78-12.86c1.95-4,2.34-10.14,1.69-21.17-.46-7.75-1.32-15.06-1.36-15.36a10,10,0,0,0-1.84-4.72c-6-8.27-10.48-21.82-11.95-28l4.63-5.84a10,10,0,0,0-7.35-16.2,45.94,45.94,0,0,0-11.47,1.37,47.27,47.27,0,0,0-8.72-11.18,10,10,0,0,0-16.74,5.65,88.71,88.71,0,0,0-28.51-4.11c-14.37-.62-55,9-63.09,11a8.51,8.51,0,0,0-1,.3c-9.18,3.26-26.78-1.32-35.71-5a10,10,0,0,0-13,13.24A51.56,51.56,0,0,0,39.92,34.4c-6.82,1.26-13.46,1.91-16,1-9-3.42-13.37,1.84-14.49,3.54-1.79,2.73-3.79,8.34,2.95,15.25,4.12,4.23,11.51,9.69,18.38,13.57.68.38,1.35.75,2,1.1-6.09,7.65-10.94,17.45-7.63,27.58a10.23,10.23,0,0,0,6,6.37c5.17,2,9.14-.08,19-5.73a15.08,15.08,0,0,0-.4,3v.12l-.43,24.53a10.33,10.33,0,0,0,.15,1.93A29.41,29.41,0,0,0,54.3,138a13.73,13.73,0,0,0,9.34,5.37A24.94,24.94,0,0,0,66.5,149c.52.76,1.11,1.7,1.79,2.77a96.69,96.69,0,0,0,12.37,16.4c2.22,2.28,6.72,6.24,11.23,10C79.34,182.26,66.38,188.54,65.48,200c-.62,3.34-2.56,14.53-3.49,26.49a26.07,26.07,0,0,0-5.24-5.58c-.61-3.48-1.49-8.42-2.47-13.42-1.05-5.39-2-9.73-2.78-12.89-1.18-4.65-3.39-13.32-12-13.14-.4,0-.75,0-1.07,0-2.33,0-9.41-.18-13.12,7.5-.62,1.29-1.18,2.44-1.32,6.9a45.56,45.56,0,0,0-4.53-3.35,10.77,10.77,0,0,0-2.11-1A13.45,13.45,0,0,0,5,193.29c-2,1.56-5.4,5.19-5,12,.35,5.83,4.5,12.09,11.79,22.63.1.16.21.32.32.48a23,23,0,0,0-1.44,2.84,12.46,12.46,0,0,0-2.31,1.88,13.11,13.11,0,0,0-2.94,12.55,10,10,0,0,0,1.13,2.74c1.22,2,4.77,8.14,6.5,12a25.48,25.48,0,0,0,8.65,10.44c5.32,3.71,7.48,6.27,8,7.1l2.05,5.21c.46,1.35.89,2.72,1.28,4l.76,2.59c.4,1.44.72,2.65.91,3.42a10,10,0,0,0,9.71,7.62h58.16l90.09-1.28h38.79a10,10,0,0,0,10-10V264.68a18.67,18.67,0,0,0,3.19-10.21A20.77,20.77,0,0,0,241.42,243.47Z"/><path class="cls-2" d="M70.2,83.5S91.45,71.71,119.52,77V66.79s-28.87-.39-42.35,4.36"/><polyline class="cls-3" points="77.17 71.15 70.2 77.71 70.2 83.5"/><polyline class="cls-2" points="77.17 71.15 70.2 77.71 70.2 83.5"/><path class="cls-2" d="M170.41,68.87s-5.32-2.7-6.68-5.41"/><path class="cls-2" d="M179.39,64.43l4.84,10.87-42.43-.16a38,38,0,0,0-7,1l.48-7.24c-.08-2.25,4.26-4.74,4.26-4.74l24.18-.67Z"/><path class="cls-3" d="M68.48,94l1.72,1.53,1.1,34.77c-1.11,2-3.61,2.77-5.39,3.1a3.66,3.66,0,0,1-3.6-1.41,19.8,19.8,0,0,1-2.9-7.15l.43-24.54C60,95.11,68.48,94,68.48,94"/><path class="cls-3" d="M83.84,92.19S95,84.59,120.7,88.34"/><path class="cls-3" d="M87.8,120.25s16.82,6.21,32.9-.86"/><ellipse class="cls-2" cx="106.38" cy="105.36" rx="10.66" ry="17.34"/><path class="cls-3" d="M141.05,119.39s21,4.29,36.22-2.35"/><path class="cls-3" d="M139.21,90.83c-1.09-.72,24.13-8.47,37.2-4.5"/><ellipse class="cls-2" cx="160.39" cy="102.8" rx="11.2" ry="17.23"/><path class="cls-3" d="M119.74,127.69c.91,0,2.52-2,4.28-2.62"/><path class="cls-4" d="M217.66,100.05l2.14,35.57a1.63,1.63,0,0,1-1.11,1.63c-3.67,1.17-15.08,4.55-23.12,3.9a1.33,1.33,0,0,0-1.36.92c-1.46,4.56-8.86,23.15-34.69,34.64,0,0-38.8,7.49-51.13,1.57-1.09-.52-15-11.49-20.59-17.16-6.28-6.42-10.48-14.06-13-17.81a14.52,14.52,0,0,1-2.5-6.69l-1-8.87s22.18,25,31,22.18c0,0,10.78-9.12,15-8.84l23-.57a2.76,2.76,0,0,1,1.43.35c1.81,1,6.75,3.89,9.68,7.27a2.57,2.57,0,0,0,3,.69c6.46-2.79,27.86-12.5,33.38-21.35a2.14,2.14,0,0,0,.29-1.26L184.23,75.3l-13-29.25c-2.57-.16-.8,22.82-.8,22.82-11.09-4.82-15.27-24.75-15.27-24.75L123,70.48c-1.13-5.94,2.25-29.25,2.25-29.25-4,0-25.07,23.63-25.07,23.63l2.09-17.36L70.2,77.71V95.55S56.36,83.28,56.41,82.86c.21-1.93-21.13,12.26-21.72,10.44C29.62,77.79,61.12,57.57,52.12,63.14S8,40,20.41,44.71s52.71-8.14,41.14-8.14S42.7,19.86,42.7,19.86,69.27,30.79,85.55,25c0,0,47.68-11.57,60.65-10.71,0,0,23.57-1.18,38.35,10.17L184.66,10s8.59,8.13,8.76,14.93a1.11,1.11,0,0,0,1.55,1c3.55-1.54,12-3.61,16.26-3.4l-7,8.9c-.5.89,0,3.07.21,4.07,1.1,5.24,6.09,22.19,13.91,32.94,0,0,3.92,33.27-.64,31.6l-3-7.2c-1.58-3.76-4.46-7-8.53-7.26l-3.54.16c-2.54-.43-6.15,4.3-7.23,7.07l-3,6.27"/><path class="cls-5" d="M141.8,168.52c3,0,6.4-3.7,7.81-5.3a2.12,2.12,0,0,0,.54-1.48c-.52-16.81-21.53-15.72-21.53-15.72-17.7-1-21.31,10.2-22.05,14.64a3.74,3.74,0,0,0,.89,3.09c1.68,1.87,5.17,5,9.58,4.77C117,168.52,130.08,168.45,141.8,168.52Z"/><path class="cls-5" d="M121.42,158.55a12.73,12.73,0,0,0,15.24,0"/><path class="cls-5" d="M218.82,119.39a47.66,47.66,0,0,0,16.84,18.75s-5.76,5.57-15.79-1.28"/><path class="cls-5" d="M217.36,137.66s.62,12,8.23,18.48c0,0-18,2.15-25.29-5.14,0,0,.65,13.61,2.68,16.61,0,0-14.77,1.76-25-2.49"/><line class="cls-5" x1="121.42" y1="181.03" x2="121.42" y2="194.12"/><line class="cls-5" x1="159.52" y1="176.71" x2="159.52" y2="191.07"/><path class="cls-5" d="M156,192.14s5.14-1.71,8,0"/><path class="cls-5" d="M116.64,194.23s2-.48,6.84.06"/><path class="cls-5" d="M121.42,181s-14.32,12.51-2.6,19.36A71.78,71.78,0,0,0,160,203.07s8.41-2.68,10.34-13.07c0,0-1.1-9.27-10.78-7.8"/><path class="cls-5" d="M231.32,246.62s7.38,7.45.13,14.52L191,263.39c-2.89-5.14-.11-12.43-.11-12.43,5.58-2.89,40.45-4.34,40.45-4.34,1.77-37.76-18.25-59.29-18.25-59.29-15.91-11.25-53.14-9.43-53.14-9.43s12.72-1.19,15.09,1.65c3.77,4.53,6.64,10.48,3.75,15.16a32.35,32.35,0,0,1-22,18S136,214.32,122.68,210c0,0-7.12-.88-13.93-12.52a9.92,9.92,0,0,1-1.31-4c-.4-3.72-1.17-8.7,5-10.66"/><polyline class="cls-5" points="231.45 261.14 231.45 289.54 192.59 289.54 191.73 263.39"/><polyline class="cls-5" points="190.87 250.96 190.87 236.29 192.69 230.71"/><line class="cls-5" x1="189.27" y1="234.04" x2="190.87" y2="236.29"/><path class="cls-5" d="M121.42,181s-45.83,7.9-46,20.11c0,0-6.43,34.07-2.9,49,0,0-2.81,4.9.89,8l27.16-1.29c3-3.7,0-8.44,0-8.44"/><path class="cls-5" d="M101.22,227.34s-2.17,4.82-1.77,6.59,1.13,14.46,1.13,14.46c-6.43-1.36-28,1.77-28,1.77"/><line class="cls-5" x1="96.08" y1="230.31" x2="99.41" y2="233.45"/><path class="cls-5" d="M75,258.12s2.59,17.82,1.76,32.7h25.72s-4.54-25.82-3-33.93"/><path class="cls-5" d="M76.71,290.82h-3s-13.47-19.39-13.47-27.43-1-20.22-3.57-26-6.24-10.28-11.08-10.52c-1.26-.07-13.37,5.28-16,8.86,0,0-5.17,8,.05,10.82,0,0,8.52,2.25,15.51-6.34l2.65,13.58"/><path class="cls-5" d="M47.7,227.34s-6-36-8-35.92c-3,.06-4.26-.48-5.39,1.85-.94,2,.28,20.86.68,26.77a.57.57,0,0,1-1,.4c-3.31-3.92-13.18-15.29-19.87-19.51,0,0-4.39-1.5-4.07,3.75s12.44,20,17.38,28.77l2.17,2.27s-5.62-7-8.41-2.86-1.61,6.43-1.61,6.43l9.3,15"/><path class="cls-5" d="M19.55,239.29s-5.68-1.18-4.39,4c0,0,4.7,7.81,7.06,13.07a15.37,15.37,0,0,0,5.24,6.33c3.88,2.7,9.48,7.12,11.38,11.2,3,6.47,5.57,17,5.57,17H73.74"/><polygon class="cls-6" points="38.84 273.85 60.41 265 61.96 270.09 41.15 279.73 38.84 273.85"/><polygon class="cls-6" points="42.58 284.21 63.95 274.46 65.39 277.23 43.42 287.08 42.58 284.21"/><path class="cls-3" d="M204.21,123.57s7.29-1.93,6.16-9.27c0,0-2.22-8.77-8.5-13.68"/><path class="cls-3" d="M207.7,94.59a41.53,41.53,0,0,0-5.49,5.6c-2.75,3.4-5.52,8-5.6,12.72"/><line class="cls-5" x1="194.52" y1="119.39" x2="194.52" y2="127.75"/><line class="cls-5" x1="102.43" y1="290.82" x2="192.59" y2="289.54"/><image width="538" height="194" transform="translate(116.98 228.45) scale(0.09)" xlink:href="../../Documents/Branding/Logo.png"/></g></g></svg>