<svg xmlns="http://www.w3.org/2000/svg" viewBox="0 0 229.95 324.42"><defs><style>.cls-1,.cls-6,.cls-7,.cls-9{fill:#fff;}.cls-10,.cls-2,.cls-4{fill:none;}.cls-2,.cls-6,.cls-8,.cls-9{stroke:#1d1d1b;}.cls-2,.cls-4,.cls-5,.cls-6,.cls-7,.cls-8,.cls-9{stroke-miterlimit:10;}.cls-10,.cls-2,.cls-4,.cls-5,.cls-6,.cls-7,.cls-8{stroke-width:2px;}.cls-3{fill:#101013;}.cls-4,.cls-5,.cls-7{stroke:#040505;}.cls-5{fill:#040505;}.cls-8{fill:#1d1d1b;}.cls-10{stroke:#010101;stroke-linecap:round;stroke-linejoin:round;}</style></defs><title>Face Idea</title><g id="Capa_2" data-name="Capa 2"><g id="Capa_3" data-name="Capa 3"><path class="cls-1" d="M213.65,184.15l-.42-2c15.25-26.52,2.29-49.21-5.59-63-.5-.86-1-1.7-1.43-2.51-1-1.71-2.76-4.9,1.67-8.41a10.49,10.49,0,0,0-5.62-18.66c-.86-.07-1.74-.11-2.61-.11a31.69,31.69,0,0,0-8.29,1.12c-.37-1.54-.81-3.15-1.3-4.82A10.42,10.42,0,0,0,180,78.22,10.54,10.54,0,0,0,169.87,86a10.52,10.52,0,0,1-1.63,3.36c-7-3.37-19.09-8.19-32.42-9.32,0-.22,0-.43,0-.65a10.48,10.48,0,0,0-.25-2.25,14.91,14.91,0,0,0,3.69-7.53l.58-2.76A27.27,27.27,0,0,0,146,36.34l9.74-8.53a10,10,0,0,0-13.18-15l-10.7,9.38-.95-.4V10a10,10,0,0,0-20,0V21.74l-.8.33-6.93-8.23a10,10,0,0,0-15.3,12.89l8,9.49a27,27,0,0,0-2.3,11,27.38,27.38,0,0,0,8.36,19.67l.58,2.74a15,15,0,0,0,3.69,7.52,10.48,10.48,0,0,0-.25,2.25,9.78,9.78,0,0,0,.51,3.13c-17.52,2.34-30.57,3.73-31.2,3.79a10.19,10.19,0,0,0-1.89.37A9.85,9.85,0,0,1,70.6,87c-7.34,0-17.79-5.22-24.5-9.69A10.48,10.48,0,0,0,29.83,86.6,34.73,34.73,0,0,0,41,110.11c-.56,0-1.13,0-1.72,0-11.1,0-22.75-4.39-25-5.28a10.38,10.38,0,0,0-3.85-.74A10.5,10.5,0,0,0,.36,117.35c3.41,12.57,12.9,21.71,21.46,27.69C10.33,158.25,8.43,178.67,9.37,184.57a10.1,10.1,0,0,0,10,8.78h0A10.14,10.14,0,0,0,28.74,187c2-1.79,7.84-5.28,15.48-9,.45.55.9,1.14,1.36,1.77A10.84,10.84,0,0,0,44.13,181,10.47,10.47,0,0,0,41,187.27c-.12,1-1.21,10-1.54,19-.4,11.14.22,19.45,4.08,24.43a11.42,11.42,0,0,0-4.93,4.21c-3.1,4.77-2.56,10.71,1.07,20.6a14.51,14.51,0,0,0-3.13,4,13.46,13.46,0,0,0-6.28,3.66,14.81,14.81,0,0,0-2.91,4.32,18.26,18.26,0,0,0-7,5l-.07.09c-4.41,5.39-2.84,12.51.88,21.56a96.28,96.28,0,0,0,7,13.94c3.91,5.87,13.82,15.06,25.1,16.31a17.37,17.37,0,0,0,1.92.11h0c10,0,19.91-8.41,28.44-16.29L85,306.8c1.8-1.62,3.89-4.16,5.2-9.12,9.45,4,20.71,6.13,33,6.13h1.52c28.5-.39,47.8-26.22,55.93-39.67l8.42,2a10.87,10.87,0,0,0,2.41.28,10.51,10.51,0,0,0,10.3-8.49l.73-3.7a16.52,16.52,0,0,0,5.82,1.11,13.34,13.34,0,0,0,12.42-8.08c2.63-5.62,2.42-12.16.91-18.48a10.52,10.52,0,0,0,8.09-8.85C231.32,208.37,221,193.2,213.65,184.15Z"/><path class="cls-2" d="M63.35,225.23s-4.18-29.12-1.07-36.64l0-30.67,27.57-30.86v18.43L110,124.06l4.51,25.28,19.92-25.28S140,147.2,151.1,148.49c0,0,1.71-22.29,5.14-21.86s20.15,18,21.43,22.29,3,16.28,3,16.28-5.14,37.29-3.86,43.72-20.14,20.57-20.14,20.57-21-21.43-35.77-20.57S86.81,216.63,80,229.49Z"/><path class="cls-3" d="M62.26,171.11c.12,1.18,22.9-20.76,48.73-8.4l4-7.64c-.6,3.09-19.39-15.75-53.85,4Z"/><path class="cls-3" d="M129.28,153.7l5.05,7.17s30.3-12.17,46.34,4.33l-3.23-12.85C177.88,154.06,143.51,142.37,129.28,153.7Z"/><line class="cls-2" x1="113.28" y1="199.75" x2="108.7" y2="203.88"/><path class="cls-2" d="M54.41,267.34a.49.49,0,0,0,.83-.5c-3.43-7.76-12.68-27.79-6.72-27.13,7.71.86,19.54,31.38,18.26,35.66-1.23,4.09-1.09-13.95,2.08-15.72a.48.48,0,0,0,.23-.64c-1.42-2.85-8.18-17.45-5.88-32.92a.46.46,0,0,0-.63-.51,12.37,12.37,0,0,1-10.37-.35c-5.38-2.89-1.58-34.47-1.31-36.73a.54.54,0,0,1,.15-.29c.45-.43,2.4-1.48,10.25.16a.49.49,0,0,0,.54-.69c-1.72-3.53-8.33-16.38-15.44-21.46a.43.43,0,0,0-.41,0c-2.46,1.1-25.14,11.35-26.35,16.62-1.27,5.47-1.5-31.15,20-38.2a.48.48,0,0,0,0-.89c-5.17-2.27-25.12-12-29.72-29a.48.48,0,0,1,.65-.57c5.61,2.23,36.69,13.55,51.13-2.37a.49.49,0,0,0-.21-.79c-3.68-1.27-20.79-8-21.76-25a.47.47,0,0,1,.73-.42c4,2.66,22.68,14.41,35.63,10.63h0c.88-.1,22-2.34,47.12-6,20.18-2.94,42,8.54,46.07,11a.43.43,0,0,0,.44,0,22.52,22.52,0,0,0,9.66-12.65.49.49,0,0,1,.95,0c1.06,3.57,3.21,11.71,2.41,16.49a.48.48,0,0,0,.78.46c2.65-2.1,9.52-6.74,17.73-6a.48.48,0,0,1,.27.86c-2.85,2.26-10.55,9.8-4.17,21.14,7.7,13.69,21.37,34.19,5.26,58.54a.51.51,0,0,0-.07.38l1.64,8a.57.57,0,0,0,.11.22c1.24,1.49,16.73,20.26,15.45,29.93a.49.49,0,0,1-.68.38l-13.88-5.62a.5.5,0,0,0-.62.72c2.71,4.59,11.3,20.41,6.94,29.14,0,0-2.49,7.45-15.19-5.72a.5.5,0,0,0-.86.24L192,256a.5.5,0,0,1-.61.39L176,252.75a.51.51,0,0,0-.56.25c-2,4-21.24,40.39-50.82,40.8-31.29.43-43.29-13.71-43.29-13.29s1.29,15-3,18.86-16.29,15.86-24,15S39,306.31,36.46,302.45,25.68,281.67,28,278.82c0,0,2.7-3.23,6.7-2.39a.87.87,0,0,0,1-.9c-.07-2.72,1-8.36,7-5.92a1.07,1.07,0,0,0,1.45-.93c.27-3.16,1.37-7.61,5.85-6.24a2.8,2.8,0,0,1,1.22.84Z"/><path class="cls-2" d="M81.35,280.51s.42-27.41-12.23-21.27"/><path class="cls-2" d="M87.29,249.74a12.65,12.65,0,0,1-.77-7.17c1.24-7.35,6.9-25.73,32.44-25.73,24.08,0,31.59,16.35,33.82,24.37a8,8,0,0,1-2.57,8.26c-4.52,3.73-14.13,8.21-32.43,4C111.31,251.94,92.5,261.7,87.29,249.74Z"/><path class="cls-2" d="M190.21,209.34s10.35.5-1.63-17.64"/><path class="cls-2" d="M184.31,199.75a32.69,32.69,0,0,1,4.27-8.05,18.67,18.67,0,0,1,7.52-6.36"/><path class="cls-2" d="M184.31,224.56c8.58,1.07,15.86-4.07,15.86-4.07s7.07-19.66,4.18-31.9-13.82-21.89-21.32-.67"/><path class="cls-2" d="M180,224.56h4.34c-.21,4.28-8.67,28.1-8.67,28.1"/><path class="cls-4" d="M77.53,168.5s9.49-9.37,29.41-3.08"/><ellipse class="cls-5" cx="95.52" cy="181.34" rx="8.51" ry="13.84"/><path class="cls-6" d="M80.7,196.84s14.45-7.76,27.55-.67"/><path class="cls-4" d="M134.33,166.2s16.86-9.16,29.61-1.37"/><ellipse class="cls-5" cx="151.19" cy="181.22" rx="8.91" ry="13.72"/><path class="cls-7" d="M136.8,197.1s16-9.93,28.83-1.87"/><path class="cls-8" d="M130.11,239.84c-3,5.71-9.13,9.34-15.37,7.65a11.71,11.71,0,0,1-8.26-14.35c1-3.74,9.13-3.5,14.36-8.25C127.74,218.62,133.68,233.13,130.11,239.84Z"/><path class="cls-9" d="M118.6,241.14c-4-4.63-11,.8-11,.8,4,9.78,19.33,5.82,20.1.5.6-4.12-8-5.43-10.87-2.67"/><path class="cls-2" d="M35.33,276.31s7.61,11.14,3.17,12-8-6-8-6"/><path class="cls-2" d="M43.45,269.61s6.31,9.95,3,13.07-9-2.91-9-2.91"/><path class="cls-2" d="M55,267.48s3.17,5.92-.28,8.83-9.48-3.45-9.48-3.45"/><path class="cls-6" d="M43.69,293.29s9.65-9.78,18-11l.54-3"/><path class="cls-10" d="M116,79.35h9.9M103.57,47.17A17.33,17.33,0,1,1,130.8,61.36l-1.34,6.36a5,5,0,0,1-4.89,4.2h-7.34a5,5,0,0,1-4.89-4.2L111,61.39A17.3,17.3,0,0,1,103.57,47.17Z"/><path class="cls-10" d="M111,54.6h19.8"/><line class="cls-10" x1="103.57" y1="29.84" x2="95.52" y2="20.29"/><line class="cls-10" x1="120.9" y1="22.43" x2="120.9" y2="10"/><line class="cls-10" x1="138.23" y1="29.84" x2="149.14" y2="20.29"/></g></g></svg>