<svg xmlns="http://www.w3.org/2000/svg" viewBox="0 0 229.94 248.86"><defs><style>.cls-1{fill:#fff;}.cls-2{fill:none;stroke:#1d1d1b;stroke-miterlimit:10;stroke-width:2px;}.cls-3{fill:#101013;}</style></defs><title>Face Sticker</title><g id="Capa_2" data-name="Capa 2"><g id="Capa_3" data-name="Capa 3"><path class="cls-1" d="M213.64,108.59l-.42-2c15.25-26.52,2.28-49.2-5.6-63-.49-.86-1-1.69-1.42-2.51-1-1.7-2.75-4.88,1.65-8.39A10.51,10.51,0,0,0,202.19,14c-.84-.07-1.7-.11-2.55-.11A32.12,32.12,0,0,0,191.35,15q-.56-2.29-1.3-4.79A10.41,10.41,0,0,0,180,2.68a10.54,10.54,0,0,0-10.14,7.74,10.42,10.42,0,0,1-1.64,3.34c-8-3.82-22.57-9.57-38.06-9.57a57.19,57.19,0,0,0-8.27.59c-25,3.64-45.84,5.85-46.71,5.94l-.14,0a10.87,10.87,0,0,0-1.68.34,9.9,9.9,0,0,1-2.77.34c-7.32,0-17.76-5.2-24.47-9.67a10.5,10.5,0,0,0-16.29,9.38A34.73,34.73,0,0,0,41,34.55c-.57,0-1.14,0-1.73,0-11.08,0-22.73-4.39-25-5.27A10.49,10.49,0,0,0,2.15,32.71,10.57,10.57,0,0,0,.36,41.84C3.78,54.38,13.27,63.51,21.81,69.48,10.3,82.69,8.41,103.13,9.36,109a10.12,10.12,0,0,0,10,8.77h0a10.16,10.16,0,0,0,9.32-6.32c2-1.78,7.84-5.27,15.5-9,.44.54.89,1.13,1.35,1.76a11.73,11.73,0,0,0-1.4,1.13A10.53,10.53,0,0,0,41,111.72c-.2,1.63-1.22,10.2-1.54,19-.49,13.57.55,22.94,7.1,27.2a11.62,11.62,0,0,0-5.87,4.7l-.07.11h0a11.09,11.09,0,0,0-8.85,4.39,11.77,11.77,0,0,0-9.24,5.6c-2.1,3.39-3.74,8.28.93,22.69l-.48.36c-8.48,6.59-3.48,18.9-1.84,22.94a90.06,90.06,0,0,0,7.05,13.72C32,238.31,42,247.5,53.23,248.75a17.37,17.37,0,0,0,1.92.11c10,0,19.9-8.41,28.43-16.28L85,231.25c1.8-1.62,3.89-4.17,5.2-9.13,9.45,4,20.71,6.13,33,6.13h1.52c28.51-.39,47.81-26.24,55.93-39.66l8.42,2a10.31,10.31,0,0,0,2.41.28,10.51,10.51,0,0,0,10.3-8.49l.73-3.7a16.3,16.3,0,0,0,5.82,1.11h0a13.32,13.32,0,0,0,12.42-8.08c2.63-5.62,2.42-12.16.91-18.48a10.54,10.54,0,0,0,8.09-8.84C231.31,132.83,221,117.7,213.64,108.59Z"/><path class="cls-2" d="M63.34,149.67S59.16,120.56,62.27,113l0-30.67L89.8,51.5V69.93L109.94,48.5l4.52,25.29L134.37,48.5s5.57,23.14,16.72,24.43c0,0,1.71-22.29,5.14-21.86s20.14,18,21.43,22.29,3,16.28,3,16.28-5.14,37.29-3.86,43.72-20.14,20.57-20.14,20.57-21-21.43-35.77-20.57-34.09,7.71-40.95,20.57Z"/><path class="cls-3" d="M62.25,97.79s20.69-19.29,46.84-3.86l8.14-8.14s-20.51-25.72-56.11,0Z"/><path class="cls-3" d="M126.66,82.79l8.14,11.14s34.86-7.71,45.29,0l-1.15-14.81S139.94,67.79,126.66,82.79Z"/><path class="cls-2" d="M70.94,112.36s15.43-11.57,30.43,0"/><path class="cls-2" d="M134.37,112.36s15-11.57,34.72,0"/><line class="cls-2" x1="110.8" y1="117.5" x2="107.37" y2="124.19"/><path class="cls-2" d="M61.82,112.11c-1.73-3.55-8.3-16.33-15.39-21.42a.5.5,0,0,0-.5,0c-2.69,1.2-25.1,11.36-26.31,16.59-1.26,5.46-1.49-31.09,20-38.18a.5.5,0,0,0,0-.93c-5.24-2.3-25.05-12-29.66-28.92a.5.5,0,0,1,.67-.59c5.71,2.26,36.66,13.49,51.08-2.37a.5.5,0,0,0-.21-.81c-3.73-1.29-20.73-8.06-21.74-24.91a.5.5,0,0,1,.77-.45c4.1,2.73,22.68,14.36,35.58,10.6h.07c1-.1,22.07-2.35,47.11-6,20.12-2.93,41.88,8.48,46,11a.47.47,0,0,0,.51,0,22.51,22.51,0,0,0,9.62-12.6.5.5,0,0,1,1,0c1.05,3.58,3.19,11.67,2.4,16.44a.5.5,0,0,0,.8.47c2.66-2.11,9.49-6.71,17.66-6a.5.5,0,0,1,.29.89c-2.88,2.29-10.5,9.81-4.14,21.12,7.7,13.68,21.36,34.19,5.26,58.54a.54.54,0,0,0-.08.37l1.65,8a.42.42,0,0,0,.11.22c1.24,1.49,16.73,20.26,15.45,29.94a.49.49,0,0,1-.68.38l-13.88-5.63a.5.5,0,0,0-.62.72c2.71,4.6,11.3,20.42,6.93,29.14,0,0-2.48,7.45-15.18-5.72a.51.51,0,0,0-.86.24L192,180.44a.51.51,0,0,1-.61.4L176,177.19a.5.5,0,0,0-.56.26c-2,4-21.24,40.39-50.83,40.79-31.28.43-43.28-13.71-43.28-13.28s1.28,15-3,18.85-16.29,15.86-24,15S39,230.75,36.44,226.89s-11.25-20.22-7.39-23.22c2.5-1.94,5.47.22,7.68,2.38.39.39,1.63.52,1.41,0-3.25-7.65-11.62-28.62-5.66-29,7.29-.43,15,23.14,15,23.14s-12.86-29.14-6.43-27.43S57.34,196,57.34,196s-14.15-29.57-6.43-28.72,17.14,28.29,15.86,32.57c-1.23,4.08-1.09-13.85,2-15.7a.51.51,0,0,0,.25-.68c-1.44-2.9-8.16-17.44-5.88-32.85a.49.49,0,0,0-.67-.54,12.38,12.38,0,0,1-10.33-.37c-5.36-2.89-1.58-34.42-1.3-36.72a.54.54,0,0,1,.15-.3c.46-.44,2.43-1.47,10.23.16A.49.49,0,0,0,61.82,112.11Z"/><path class="cls-2" d="M81.34,205s.42-27.41-12.23-21.28"/><path class="cls-2" d="M45.23,220.79l13.29-9.43s-1.83-9.64,6.42-4.5"/><path class="cls-2" d="M86.16,170s.86-28.71,32.78-28.71S153.66,170,153.66,170s-3,21.3-36,12.94C110.59,181.14,89.37,196.57,86.16,170Z"/><path class="cls-2" d="M190.19,133.79s10.35.49-1.62-17.65"/><path class="cls-2" d="M184.3,124.19a32.88,32.88,0,0,1,4.27-8,18.52,18.52,0,0,1,7.52-6.35"/><path class="cls-2" d="M184.3,149c8.57,1.07,15.86-4.07,15.86-4.07s7.07-19.66,4.18-31.9-13.82-21.89-21.32-.67"/><path class="cls-2" d="M180,149h4.34c-.21,4.29-8.68,28.1-8.68,28.1"/><line class="cls-2" x1="124.45" y1="157.57" x2="134.37" y2="172.63"/><line class="cls-2" x1="108.68" y1="156.83" x2="101.37" y2="170.86"/><line class="cls-2" x1="116.37" y1="160.14" x2="116.37" y2="175.58"/><path class="cls-2" d="M96.87,163.54s1.72,12.25,13.93,12,20.57-.85,20.57-.85,7.72-3.94,7.72-11.18-5.36-10.47-9.86-7.9-16.07,5.36-21.86.22S94.33,157.19,96.87,163.54Z"/></g></g></svg>