<svg width="106" height="39" viewBox="0 0 106 39" fill="none" xmlns="http://www.w3.org/2000/svg">
<rect x="74.6597" y="33.3561" width="16.965" height="6.4594" rx="3.2297" transform="rotate(-45 74.6597 33.3561)" fill="#2D7DD2"/>
<rect x="61.646" y="11.2445" width="31.2346" height="6.4594" rx="3.2297" transform="rotate(45 61.646 11.2445)" fill="#2D7DD2"/>
<rect x="18.4614" y="20.9952" width="16.965" height="6.4594" rx="3.2297" transform="rotate(45.7062 18.4614 20.9952)" fill="#2D7DD2"/>
<rect x="48.2922" y="16.0845" width="31.2346" height="6.4594" rx="3.2297" transform="rotate(135.706 48.2922 16.0845)" fill="#2D7DD2"/>
<rect x="7.31006" y="29.9087" width="34.3066" height="6.4594" rx="3.2297" transform="rotate(-45 7.31006 29.9087)" fill="#E6E6EB"/>
<rect x="32.6914" y="6.79846" width="34.3066" height="6.4594" rx="3.2297" transform="rotate(45 32.6914 6.79846)" fill="#E6E6EB"/>
<rect x="73.8882" y="8.09033" width="34.3066" height="6.4594" rx="3.2297" transform="rotate(45 73.8882 8.09033)" fill="#E6E6EB"/>
<rect x="48.3635" y="31.057" width="34.3066" height="6.4594" rx="3.2297" transform="rotate(-45 48.3635 31.057)" fill="#E6E6EB"/>
<rect x="44.5896" y="8.13879" width="11.5101" height="11.5101" rx="5.75503" transform="rotate(-45 44.5896 8.13879)" fill="#EEB902"/>
<rect x="4.62354" y="17.7823" width="16.965" height="6.4594" rx="3.2297" transform="rotate(45.7062 4.62354 17.7823)" fill="#E6E6EB"/>
<rect x="89.4363" y="32.1117" width="16.965" height="6.4594" rx="3.2297" transform="rotate(-45 89.4363 32.1117)" fill="#E6E6EB"/>
</svg>
